<mxfile host="app.diagrams.net" modified="2022-01-01T03:31:07.094Z" agent="5.0 (Windows NT 10.0; Win64; x64) AppleWebKit/537.36 (KHTML, like Gecko) Chrome/96.0.4664.110 Safari/537.36" etag="o9OJqrxf-_1POGH6QmMk" version="15.5.4" type="github">
  <diagram id="C5RBs43oDa-KdzZeNtuy" name="Page-1">
    <mxGraphModel dx="1422" dy="831" grid="1" gridSize="10" guides="1" tooltips="1" connect="1" arrows="1" fold="1" page="1" pageScale="1" pageWidth="827" pageHeight="1169" math="0" shadow="0">
      <root>
        <mxCell id="WIyWlLk6GJQsqaUBKTNV-0" />
        <mxCell id="WIyWlLk6GJQsqaUBKTNV-1" parent="WIyWlLk6GJQsqaUBKTNV-0" />
        <mxCell id="b1wIOaS7buxL3FRpCfnz-1" style="edgeStyle=orthogonalEdgeStyle;rounded=0;orthogonalLoop=1;jettySize=auto;html=1;" edge="1" parent="WIyWlLk6GJQsqaUBKTNV-1" source="b1wIOaS7buxL3FRpCfnz-0">
          <mxGeometry relative="1" as="geometry">
            <mxPoint x="410" y="480" as="targetPoint" />
          </mxGeometry>
        </mxCell>
        <mxCell id="b1wIOaS7buxL3FRpCfnz-0" value="请求到达" style="rounded=1;whiteSpace=wrap;html=1;" vertex="1" parent="WIyWlLk6GJQsqaUBKTNV-1">
          <mxGeometry x="350" y="400" width="120" height="60" as="geometry" />
        </mxCell>
        <mxCell id="b1wIOaS7buxL3FRpCfnz-5" value="" style="edgeStyle=orthogonalEdgeStyle;rounded=0;orthogonalLoop=1;jettySize=auto;html=1;" edge="1" parent="WIyWlLk6GJQsqaUBKTNV-1" source="b1wIOaS7buxL3FRpCfnz-3" target="b1wIOaS7buxL3FRpCfnz-4">
          <mxGeometry relative="1" as="geometry" />
        </mxCell>
        <mxCell id="b1wIOaS7buxL3FRpCfnz-13" value="" style="edgeStyle=orthogonalEdgeStyle;rounded=0;orthogonalLoop=1;jettySize=auto;html=1;" edge="1" parent="WIyWlLk6GJQsqaUBKTNV-1" source="b1wIOaS7buxL3FRpCfnz-3" target="b1wIOaS7buxL3FRpCfnz-12">
          <mxGeometry relative="1" as="geometry" />
        </mxCell>
        <mxCell id="b1wIOaS7buxL3FRpCfnz-3" value="是否有cache" style="rhombus;whiteSpace=wrap;html=1;" vertex="1" parent="WIyWlLk6GJQsqaUBKTNV-1">
          <mxGeometry x="370" y="480" width="80" height="80" as="geometry" />
        </mxCell>
        <mxCell id="b1wIOaS7buxL3FRpCfnz-7" value="" style="edgeStyle=orthogonalEdgeStyle;rounded=0;orthogonalLoop=1;jettySize=auto;html=1;" edge="1" parent="WIyWlLk6GJQsqaUBKTNV-1" source="b1wIOaS7buxL3FRpCfnz-4" target="b1wIOaS7buxL3FRpCfnz-6">
          <mxGeometry relative="1" as="geometry" />
        </mxCell>
        <mxCell id="b1wIOaS7buxL3FRpCfnz-4" value="否" style="whiteSpace=wrap;html=1;" vertex="1" parent="WIyWlLk6GJQsqaUBKTNV-1">
          <mxGeometry x="510" y="490" width="120" height="60" as="geometry" />
        </mxCell>
        <mxCell id="b1wIOaS7buxL3FRpCfnz-9" value="" style="edgeStyle=orthogonalEdgeStyle;rounded=0;orthogonalLoop=1;jettySize=auto;html=1;" edge="1" parent="WIyWlLk6GJQsqaUBKTNV-1" source="b1wIOaS7buxL3FRpCfnz-6" target="b1wIOaS7buxL3FRpCfnz-8">
          <mxGeometry relative="1" as="geometry" />
        </mxCell>
        <mxCell id="b1wIOaS7buxL3FRpCfnz-6" value="后端构建返回内容" style="whiteSpace=wrap;html=1;" vertex="1" parent="WIyWlLk6GJQsqaUBKTNV-1">
          <mxGeometry x="510" y="630" width="120" height="60" as="geometry" />
        </mxCell>
        <mxCell id="b1wIOaS7buxL3FRpCfnz-11" value="" style="edgeStyle=orthogonalEdgeStyle;rounded=0;orthogonalLoop=1;jettySize=auto;html=1;" edge="1" parent="WIyWlLk6GJQsqaUBKTNV-1" source="b1wIOaS7buxL3FRpCfnz-8" target="b1wIOaS7buxL3FRpCfnz-10">
          <mxGeometry relative="1" as="geometry" />
        </mxCell>
        <mxCell id="b1wIOaS7buxL3FRpCfnz-8" value="存cache" style="whiteSpace=wrap;html=1;" vertex="1" parent="WIyWlLk6GJQsqaUBKTNV-1">
          <mxGeometry x="510" y="770" width="120" height="60" as="geometry" />
        </mxCell>
        <mxCell id="b1wIOaS7buxL3FRpCfnz-10" value="返回内容" style="whiteSpace=wrap;html=1;" vertex="1" parent="WIyWlLk6GJQsqaUBKTNV-1">
          <mxGeometry x="310" y="770" width="120" height="60" as="geometry" />
        </mxCell>
        <mxCell id="b1wIOaS7buxL3FRpCfnz-14" style="edgeStyle=orthogonalEdgeStyle;rounded=0;orthogonalLoop=1;jettySize=auto;html=1;entryX=0.5;entryY=0;entryDx=0;entryDy=0;" edge="1" parent="WIyWlLk6GJQsqaUBKTNV-1" source="b1wIOaS7buxL3FRpCfnz-12" target="b1wIOaS7buxL3FRpCfnz-10">
          <mxGeometry relative="1" as="geometry" />
        </mxCell>
        <mxCell id="b1wIOaS7buxL3FRpCfnz-12" value="是" style="whiteSpace=wrap;html=1;" vertex="1" parent="WIyWlLk6GJQsqaUBKTNV-1">
          <mxGeometry x="350" y="585" width="120" height="60" as="geometry" />
        </mxCell>
      </root>
    </mxGraphModel>
  </diagram>
</mxfile>
